<svg width="119" height="116" viewBox="0 0 119 116" fill="none" xmlns="http://www.w3.org/2000/svg">
<path d="M63.0347 85.5342C48.7788 93.6241 37.6104 85.7884 34.3362 83.0836L18.5876 97.9587C17.9243 98.5853 17.0996 98.6594 16.606 98.1368C16.113 97.6149 16.2334 96.7951 16.8968 96.1685L32.6453 81.2934C30.0335 77.9643 22.9448 66.275 31.8351 52.5025C42.9381 35.3634 65.267 24.032 100.213 17.8926L101.892 17.5811L101.485 19.2394C93.3587 53.7836 80.7789 75.4261 63.0347 85.5342ZM67.2295 54.6725C67.206 54.8367 67.3207 54.9582 67.4853 54.9434L74.178 54.3418C74.2587 54.3353 74.3397 54.2962 74.4038 54.2357L84.5795 44.6243L85.852 44.5107C85.8908 45.2162 86.4177 45.7151 87.1837 45.6448C88.0574 45.567 88.8688 44.8005 88.9954 43.9335C89.1248 43.0678 88.5204 42.4278 87.6467 42.5056C86.8809 42.5745 86.1905 43.1828 85.9393 43.9144L84.543 44.0391C84.4636 44.047 84.3826 44.0861 84.3185 44.1467L74.1428 53.7581L67.5733 54.3478C67.4087 54.3626 67.2545 54.5082 67.2295 54.6725ZM69.9876 70.3838L60.9732 60.84C60.8727 60.7336 60.6841 60.7491 60.5481 60.8775C60.4139 61.0043 60.386 61.1933 60.4865 61.2997L69.5009 70.8435C68.9939 71.4915 68.9339 72.3214 69.3985 72.8133C69.9249 73.3707 70.9248 73.2808 71.6324 72.6126C72.3399 71.9443 72.4875 70.9503 71.961 70.3929C71.4966 69.8995 70.6635 69.9144 69.9876 70.3838ZM72.4529 61.2574C72.4052 61.2069 72.3328 61.1823 72.2528 61.1895L65.974 61.7539L63.1599 58.7746C63.0594 58.6682 62.8682 58.6861 62.7348 58.8121C62.6006 58.9388 62.5727 59.1279 62.6732 59.2343L65.5627 62.2934C65.6097 62.3432 65.6812 62.3686 65.7621 62.3606L72.0409 61.7963L74.8582 64.779C74.3527 65.4269 74.2909 66.2585 74.7549 66.7497C75.2814 67.3071 76.2828 67.217 76.9894 66.5496C77.697 65.8813 77.8439 64.8866 77.3174 64.3292C76.8541 63.8387 76.0206 63.8515 75.3449 64.3193L72.4529 61.2574ZM52.2113 60.1546C52.2348 59.9904 52.1201 59.869 51.9548 59.8831L41.9269 60.7859L39.1445 57.84C39.6515 57.192 39.7139 56.3611 39.2487 55.8685C38.7222 55.3111 37.7199 55.402 37.0141 56.0686C36.3057 56.7378 36.1596 57.7316 36.6861 58.289C37.1501 58.7802 37.9829 58.7667 38.6586 58.2989L41.5165 61.3246C41.5635 61.3744 41.6374 61.3989 41.716 61.3918L51.8666 60.4802C52.0336 60.4645 52.1869 60.3197 52.2113 60.1546ZM44.9046 46.8795C45.3692 47.3714 46.2014 47.3573 46.8771 46.8895L55.8858 56.4271C55.9856 56.5328 56.1759 56.5157 56.3102 56.3889C56.4461 56.2605 56.4723 56.0731 56.3725 55.9674L47.3638 46.4298C47.8709 45.7817 47.9318 44.951 47.4672 44.4591C46.94 43.901 45.9393 43.9917 45.2317 44.66C44.5242 45.3283 44.3775 46.3214 44.9046 46.8795ZM58.7774 53.6958L56.0928 50.8536L57.5879 40.7331C57.5988 40.6544 57.5784 40.5808 57.5314 40.531L56.6421 39.5895C57.1483 38.9423 57.21 38.1107 56.7454 37.6188C56.219 37.0614 55.2182 37.1521 54.5115 37.8196C53.804 38.4879 53.6573 39.481 54.1837 40.0384C54.6484 40.5303 55.4806 40.5162 56.1563 40.0484L56.9701 40.9101L55.475 51.0306C55.4642 51.1092 55.4837 51.1837 55.5314 51.2342L58.2907 54.1555C58.3906 54.2613 58.5817 54.2433 58.7151 54.1174C58.8493 53.9906 58.8773 53.8016 58.7774 53.6958ZM71.6246 32.7805L71.2398 35.3849L63.8085 42.4041C63.7444 42.4646 63.7007 42.5433 63.6905 42.6227L62.6292 49.8021C62.6057 49.9663 62.7204 50.0877 62.8856 50.0736C63.0518 50.0587 63.2059 49.9131 63.2294 49.7489L64.2718 42.6933L71.7031 35.6741C71.7672 35.6136 71.8102 35.5342 71.8219 35.4547L72.2249 32.7273C72.9696 32.5183 73.6163 31.8636 73.728 31.1023C73.8567 30.2359 73.2523 29.5959 72.3799 29.6751C71.5078 29.7527 70.6954 30.52 70.5682 31.3863C70.4543 32.1471 70.9215 32.7024 71.6246 32.7805ZM70.937 40.6887C71.7663 41.5667 73.3483 41.4253 74.4638 40.3717C75.4536 39.4367 75.7419 38.0956 75.2153 37.1911L84.9814 27.9666L90.8818 27.437L85.7515 32.2828L72.6702 44.6385C71.7972 44.0612 70.4418 44.2726 69.4519 45.2076C68.3374 46.2603 68.1051 47.8325 68.9344 48.7106C69.7638 49.5886 71.3467 49.4463 72.4612 48.3936C73.452 47.4578 73.7409 46.1173 73.2134 45.2136L85.4122 33.6914L84.5629 39.4403L79.0386 44.6582C78.1656 44.0809 76.8108 44.293 75.8209 45.228C74.7055 46.2815 74.4741 47.8529 75.3041 48.7317C76.1334 49.6097 77.7148 49.4676 78.8303 48.414C79.8201 47.479 80.1091 46.1385 79.5825 45.234L85.2575 39.8738C85.3536 39.783 85.419 39.6631 85.4357 39.5454L86.4454 32.7156L98.5567 21.276L99.5864 20.3034C99.7882 20.1128 99.83 19.8293 99.6799 19.6703C99.5298 19.5113 99.2449 19.5377 99.0431 19.7283L98.0134 20.7009L91.9149 26.4611L84.9277 27.0892C84.8099 27.0997 84.6865 27.1582 84.5904 27.249L74.6727 36.6166C73.7997 36.0393 72.4443 36.2507 71.4544 37.1857C70.339 38.2392 70.1076 39.8107 70.937 40.6887ZM71.4142 55.5621C70.0397 55.6856 68.7562 56.8979 68.5546 58.2631C68.352 59.6291 69.307 60.6401 70.683 60.5165C71.9034 60.4068 73.0472 59.4387 73.4313 58.2666L77.1544 57.932C77.2731 57.9206 77.3963 57.8636 77.4924 57.7728L85.7542 49.9692L89.0644 49.6709C89.3136 49.6485 89.5449 49.4301 89.5806 49.1834C89.6178 48.9365 89.4451 48.7537 89.1959 48.7761L85.6984 49.0912C85.5806 49.1018 85.4565 49.1596 85.3604 49.2504L77.0986 57.054L73.5627 57.3718C73.5199 56.2388 72.6346 55.4524 71.4142 55.5621ZM59.7535 32.7277L61.4444 34.5179L60.1571 43.2363C58.965 43.5529 57.9327 44.639 57.7543 45.8519C57.5517 47.2179 58.5061 48.2283 59.8821 48.1046C61.2566 47.9811 62.5398 46.7703 62.7415 45.4051C62.6903 45.7465 62.6408 46.0862 62.7417 45.4036C62.7669 45.2326 62.7827 45.1261 62.7913 45.0676C62.7807 45.1396 62.7614 45.2701 62.7419 45.4021C62.9195 44.1901 62.1861 43.2627 61.0573 43.1554L62.3736 34.2508C62.3911 34.1323 62.3598 34.0211 62.2889 33.9461L60.4853 32.0365C60.3358 31.8782 60.0496 31.9032 59.8479 32.0938C59.6461 32.2844 59.6033 32.5687 59.7535 32.7277ZM45.0298 57.3814L46.0968 57.2862C46.1413 58.4176 47.0252 59.2041 48.2454 59.0959C49.6213 58.9723 50.9056 57.7592 51.1067 56.3933C51.3077 55.0274 50.3534 54.017 48.9789 54.1406C47.7578 54.2496 46.6132 55.2184 46.2298 56.3912L45.3492 56.4704L40.3526 51.1804C40.2804 51.104 40.171 51.0679 40.0532 51.0785L35.0174 51.5311C34.7676 51.5528 34.5355 51.7721 34.5004 52.0195C34.4641 52.2655 34.6361 52.4476 34.8838 52.4254L39.7344 51.9901L44.7304 57.2795C44.8013 57.3545 44.9114 57.3913 45.0298 57.3814ZM48.978 54.1414C47.6029 54.2642 50.3534 54.017 48.978 54.1414ZM65.83 80.8168L62.9921 77.8123L64.1074 70.2528C64.1258 70.1335 64.0934 70.0246 64.0212 69.9482L63.0697 68.939C63.882 67.9149 63.9868 66.5895 63.2497 65.8091C62.4197 64.9303 60.8374 65.0733 59.7228 66.1261C58.6074 67.1796 58.3736 68.752 59.2036 69.6307C59.9408 70.4112 61.27 70.382 62.3396 69.6286L63.1799 70.5182L62.0623 78.0787C62.0465 78.1956 62.0769 78.3076 62.1484 78.3833L65.0991 81.5072C65.2493 81.6662 65.5347 81.6405 65.7365 81.4499C65.9383 81.2593 65.9802 80.9758 65.83 80.8168ZM59.2978 77.0134L59.7018 74.2785L56.0211 70.3816L56.8123 65.0258C56.8364 64.8623 56.7217 64.7408 56.5564 64.7549C56.3909 64.7706 56.2376 64.9153 56.2118 65.0805L55.3848 70.683L59.0656 74.5799L58.6975 77.0666C57.9528 77.2756 57.3061 77.9303 57.1944 78.6916C57.0663 79.5588 57.6701 80.198 58.5431 80.1195C59.4146 80.0412 60.2269 79.2739 60.3557 78.4075C60.4665 77.647 60.0007 77.0931 59.2978 77.0134ZM50.239 77.929C49.5025 77.1492 48.1756 77.1774 47.106 77.9308L45.4912 76.2212C45.4196 76.1454 45.3119 76.1077 45.1917 76.1193L39.9989 76.586L45.2955 71.5832C46.2341 72.2264 47.7086 72.0058 48.7859 70.9882C49.9853 69.8553 50.2356 68.1615 49.3424 67.216C48.4487 66.2697 46.744 66.4237 45.5446 67.5566C44.4681 68.5733 44.163 70.0337 44.7517 71.0074L38.5726 76.8437L38.072 77.3165L39.7849 70.6552L42.5596 68.0343C42.5821 68.0131 42.5973 67.9858 42.6158 67.9619C43.9493 67.6667 45.1276 66.4698 45.3258 65.1234C45.543 63.6532 44.5152 62.565 43.0343 62.6974C41.555 62.8296 40.1728 64.1351 39.9556 65.6053C39.779 66.801 40.4321 67.7319 41.4751 67.9705L39.1118 70.2028C39.0295 70.2805 38.9696 70.3784 38.9442 70.4798L36.9029 78.4208L35.4506 79.7926L34.6833 80.5173C34.4824 80.7071 34.4398 80.99 34.59 81.1489C34.7395 81.3072 35.0247 81.283 35.2265 81.0925L35.9938 80.3677L38.966 77.5604L44.8726 77.0287L46.3747 78.619C45.5615 79.6439 45.4551 80.9695 46.1923 81.75C47.0223 82.6287 48.6054 82.4849 49.7191 81.433C50.837 80.3785 51.0696 78.8084 50.239 77.929ZM45.3273 65.1233C45.5439 63.6524 45.1101 66.5935 45.3273 65.1233Z" fill="white"/>
</svg>
