<svg width="99" height="40" viewBox="0 0 99 40" fill="none" xmlns="http://www.w3.org/2000/svg">
<path d="M20.279 29.0083C9.6595 21.5819 16.4999 12.5456 18.9413 9.80388L0.858607 2.94825C0.0969169 2.65947 -0.0961377 2.14043 0.394727 1.70103C0.88495 1.2622 1.77842 1.15427 2.54011 1.44304L20.6228 8.29868C23.8232 5.8456 35.3481 -1.41473 51.3053 1.23482C71.1687 4.55774 86.3687 16.4938 97.7559 37.8073L98.3206 38.8274L96.4909 38.9397C58.4219 41.503 33.5381 38.243 20.279 29.0083ZM53.8668 24.7264C53.6879 24.7484 53.5738 24.8505 53.6124 24.9541L55.179 29.1664C55.1971 29.2173 55.2501 29.2611 55.3237 29.289L67.0076 33.7187L67.3046 34.5197C66.5553 34.7051 66.0944 35.1608 66.2753 35.6426C66.479 36.1926 67.4107 36.5458 68.3555 36.4312C69.2994 36.3187 69.9005 35.7807 69.6968 35.2306C69.5175 34.7486 68.7716 34.4381 67.9544 34.441L67.6284 33.5621C67.609 33.5123 67.556 33.4685 67.4824 33.4406L55.7985 29.0109L54.2615 24.8761C54.223 24.7725 54.046 24.7054 53.8668 24.7264ZM37.4427 30.0861L46.4071 22.0616C46.5071 21.9721 46.4645 21.8531 46.3084 21.7939C46.1542 21.7354 45.9482 21.7602 45.8482 21.8497L36.8839 29.8742C36.1208 29.6919 35.2248 29.8413 34.7628 30.2549C34.2393 30.7236 34.4733 31.3529 35.2857 31.6609C36.0981 31.9689 37.1816 31.8391 37.7052 31.3704C38.1688 30.9567 38.0379 30.4187 37.4427 30.0861ZM47.5442 29.6157C47.5916 29.5733 47.6079 29.5206 47.5892 29.4703L46.1194 25.5185L48.9179 23.0135C49.0178 22.924 48.9723 22.8038 48.8192 22.7458C48.665 22.6873 48.459 22.7121 48.359 22.8016L45.4856 25.3738C45.4388 25.4156 45.4216 25.4679 45.4413 25.5186L46.911 29.4704L44.1094 31.9783C43.3466 31.7969 42.4487 31.9456 41.9873 32.3586C41.4638 32.8273 41.6982 33.4575 42.5096 33.7652C43.322 34.0732 44.4061 33.9428 44.9297 33.4741C45.3904 33.0617 45.2618 32.523 44.6682 32.1902L47.5442 29.6157ZM45.9315 16.2126C46.1104 16.1905 46.2244 16.0884 46.1865 15.9842L43.8376 9.67325L46.6047 7.19631C47.3678 7.37865 48.2651 7.23053 48.7277 6.81637C49.2513 6.34772 49.0159 5.71707 48.2055 5.40982C47.3921 5.10144 46.3089 5.23219 45.7854 5.70084C45.324 6.11386 45.4532 6.65199 46.0468 6.98482L43.2048 9.52887C43.158 9.57074 43.1421 9.62431 43.1605 9.67374L45.5357 16.0625C45.5756 16.1675 45.7516 16.2342 45.9315 16.2126ZM59.1225 8.45045C58.6604 8.86404 58.7903 9.4016 59.3839 9.73443L50.4253 17.7538C50.326 17.8427 50.3705 17.9625 50.5247 18.0209C50.6808 18.0801 50.8848 18.0546 50.9841 17.9657L59.9427 9.9463C60.7058 10.1286 61.6028 9.97957 62.0648 9.56598C62.589 9.09675 62.3539 8.46706 61.5415 8.15905C60.7291 7.85105 59.6466 7.98122 59.1225 8.45045ZM53.7455 19.0126L56.4152 16.6228L67.4461 15.2963C67.5318 15.2855 67.6078 15.2555 67.6546 15.2136L68.5389 14.422C69.301 14.604 70.1989 14.4553 70.661 14.0417C71.1845 13.5731 70.9495 12.9434 70.138 12.6357C69.3256 12.3277 68.2431 12.4579 67.7196 12.9266C67.2576 13.3402 67.3875 13.8777 67.981 14.2105L67.1717 14.935L56.1407 16.2615C56.055 16.2723 55.9781 16.302 55.9307 16.3444L53.1867 18.8007C53.0874 18.8896 53.1329 19.0098 53.286 19.0678C53.4402 19.1263 53.6462 19.1015 53.7455 19.0126ZM77.8884 22.6114L75.0497 22.9528L66.517 19.7178C66.4434 19.6899 66.3532 19.6794 66.2669 19.6907L58.4415 20.6313C58.2627 20.6533 58.1486 20.7554 58.1865 20.8596C58.2254 20.9641 58.4024 21.0312 58.5813 21.0092L66.2716 20.0845L74.8043 23.3194C74.8779 23.3473 74.9687 23.3573 75.0553 23.3469L78.0281 22.9894C78.3545 23.4258 79.1439 23.6974 79.9736 23.5971C80.9181 23.484 81.5192 22.946 81.3142 22.3971C81.1108 21.848 80.1781 21.4944 79.2339 21.6084C78.4045 21.7072 77.875 22.1368 77.8884 22.6114ZM69.3351 23.9602C68.5104 24.6985 68.8799 25.6944 70.1607 26.18C71.2972 26.6109 72.7715 26.4937 73.6663 25.9461L84.8798 30.1975L86.2602 33.9112L80.3695 31.6779L65.3495 25.9834C65.8466 25.285 65.4335 24.4523 64.2969 24.0214C63.0172 23.5362 61.3035 23.7422 60.4788 24.4805C59.654 25.2188 60.0246 26.215 61.3043 26.7002C62.4419 27.1315 63.9155 27.0149 64.8093 26.4669L78.8161 31.7773L72.55 32.5308L66.2069 30.1259C66.704 29.4276 66.2902 28.5954 65.1537 28.1645C63.8729 27.6789 62.1602 27.8854 61.3349 28.6242C60.5101 29.3625 60.8803 30.3578 62.1611 30.8434C63.2976 31.2743 64.7713 31.1576 65.6661 30.6101L72.1822 33.0805C72.2926 33.1224 72.4298 33.1376 72.558 33.1217L80.0023 32.227L93.9087 37.4993L95.091 37.9475C95.3227 38.0354 95.6317 37.9982 95.781 37.8646C95.9303 37.7309 95.8629 37.5518 95.6312 37.464L94.4489 37.0157L87.4465 34.3609L85.8109 29.9633C85.7833 29.8892 85.7038 29.8223 85.5934 29.7804L74.2059 25.4631C74.7029 24.7647 74.2898 23.932 73.1533 23.5011C71.8725 23.0155 70.1598 23.222 69.3351 23.9602ZM53.4926 27.6475C53.1708 26.7825 51.6972 26.2238 50.2092 26.4027C48.7202 26.5813 47.7705 27.4314 48.0926 28.2974C48.3782 29.0655 49.5714 29.5889 50.8781 29.5723L51.7496 31.9156C51.7782 31.9901 51.8561 32.0572 51.9665 32.0991L61.4528 35.6956L62.2284 37.7788C62.2868 37.9357 62.5523 38.0363 62.8211 38.0035C63.0902 37.9716 63.262 37.8179 63.2036 37.661L62.3842 35.46C62.3566 35.3858 62.2777 35.3183 62.1673 35.2765L52.681 31.68L51.8533 29.4546C53.0593 29.1695 53.7783 28.4157 53.4926 27.6475ZM76.3074 14.8857L74.6259 16.3909L65.1232 17.5341C64.6201 16.8314 63.316 16.4072 61.9942 16.5667C60.5051 16.7452 59.5561 17.5948 59.8782 18.4608C60.1999 19.3259 61.6719 19.8848 63.16 19.7058C62.7878 19.7501 62.4176 19.7951 63.1616 19.7056C63.348 19.6832 63.4641 19.6693 63.5279 19.6616C63.4494 19.671 63.3071 19.6881 63.1632 19.7054C64.4841 19.5456 65.3749 18.8585 65.3339 18.1007L75.0397 16.934C75.1689 16.9185 75.2835 16.8729 75.354 16.8098L77.1476 15.2043C77.2963 15.0712 77.2301 14.8909 76.9984 14.8031C76.7667 14.7153 76.4567 14.752 76.3074 14.8857ZM47.9071 10.9164L48.1561 11.5881C46.9521 11.8739 46.2327 12.6268 46.5168 13.3951C46.8389 14.2612 48.3135 14.8202 49.8022 14.6407C51.2909 14.4612 52.2399 13.6117 51.9182 12.7466C51.6331 11.9779 50.439 11.4541 49.1316 11.4713L48.9255 10.9171L53.8944 6.46917C53.9662 6.40492 53.9896 6.32563 53.9621 6.25148L52.7833 3.0821C52.7256 2.92467 52.4591 2.82364 52.1897 2.85703C51.9215 2.88928 51.7504 3.04244 51.8084 3.19834L52.943 6.25137L47.9748 10.6987C47.9043 10.7618 47.8802 10.8417 47.9071 10.9164ZM51.9172 12.7462C51.5961 11.8806 52.2399 13.6117 51.9172 12.7462ZM25.7101 29.7535L28.5323 27.2272L36.7716 26.2354C36.9018 26.2203 37.0138 26.1745 37.0856 26.1103L38.0337 25.2628C39.2411 25.5581 40.6732 25.3253 41.4063 24.6691C42.2317 23.9302 41.8605 22.9346 40.5807 22.4494C39.3 21.9638 37.5859 22.1689 36.7606 22.9078C36.0275 23.564 36.2421 24.4211 37.1954 24.945L36.3598 25.693L28.1191 26.6835C27.9919 26.6998 27.8763 26.745 27.8052 26.8087L24.8709 29.4353C24.7216 29.569 24.7884 29.7486 25.0201 29.8365C25.2518 29.9243 25.5608 29.8872 25.7101 29.7535ZM28.8772 24.6453L31.8581 24.2868L35.5184 21.0103L41.3561 20.3083C41.5343 20.2868 41.6484 20.1847 41.6105 20.0805C41.5709 19.9765 41.3949 19.9098 41.2147 19.9305L35.1083 20.6653L31.4479 23.9419L28.7374 24.2673C28.4111 23.8309 27.6217 23.5593 26.792 23.6596C25.8468 23.7733 25.2464 24.3107 25.4508 24.8602C25.6548 25.4087 26.5875 25.7623 27.532 25.6492C28.3607 25.5486 28.8889 25.1201 28.8772 24.6453ZM26.6482 18.9669C27.3807 18.3113 27.1675 17.4555 26.2141 16.9315L27.82 15.494C27.8911 15.4303 27.9166 15.3518 27.8876 15.2763L26.6721 12.0081L32.7537 14.3138C32.1952 15.0697 32.6345 15.9777 33.8715 16.4467C35.2488 16.9688 37.0949 16.7468 37.9831 15.9518C38.8719 15.1562 38.4721 14.0835 37.0948 13.5613C35.8588 13.0927 34.2548 13.226 33.2945 13.8296L26.1997 11.1398L25.6249 10.9219L32.9861 10.5223L36.1721 11.7302C36.1979 11.74 36.2292 11.7437 36.2573 11.7503C36.757 12.5497 38.1998 13.0436 39.6672 12.8667C41.2697 12.674 42.2918 11.759 41.9459 10.8268C41.6004 9.8956 40.0134 9.29392 38.4109 9.48662C37.1077 9.64334 36.2021 10.2791 36.0908 11.011L33.3772 9.98221C33.2827 9.94639 33.1697 9.92969 33.0577 9.93621L24.2825 10.4129L22.615 9.78072L21.734 9.44671C21.5033 9.35924 21.1948 9.39584 21.0455 9.52949C20.8969 9.66257 20.9621 9.84244 21.1937 9.93028L22.0748 10.2643L25.4874 11.5581L26.8709 15.2755L25.3771 16.6126C24.1687 16.3169 22.7362 16.5488 22.0031 17.205C21.1778 17.9439 21.5499 18.9399 22.8287 19.4247C24.1108 19.9116 25.8222 19.7063 26.6482 18.9669ZM39.6675 12.8676C41.2707 12.6743 38.065 13.0603 39.6675 12.8676Z" fill="#DB6400"/>
</svg>
