<svg width="98" height="82" viewBox="0 0 98 82" fill="none" xmlns="http://www.w3.org/2000/svg">
<path d="M91.3404 42.8382C86.8371 39.087 81.631 42.5979 81.631 42.5979V22.8504C81.631 22.1873 80.9887 21.6493 80.1962 21.6493C79.4029 21.6493 78.7606 22.1873 78.7606 22.8504V44.2877C78.7606 44.2877 71.9156 48.8028 68.9734 49.9064V14.3502C68.9734 12.6973 70.5802 11.3529 72.5556 11.3529H75.1785C77.1539 11.3529 78.7606 12.6973 78.7606 14.3502V17.9331C78.7606 18.5969 79.4029 19.1343 80.1962 19.1343C80.9887 19.1343 81.631 18.5969 81.631 17.9331V14.3502C81.631 11.3729 78.7367 8.95117 75.1785 8.95117H72.5556C68.9974 8.95117 66.1023 11.3729 66.1023 14.3502V50.8586C65.2462 51.0594 64.3677 51.1958 63.475 51.2677V25.9447C63.475 22.9524 60.5657 20.5182 56.9903 20.5182H54.431C50.8555 20.5182 47.9463 22.9524 47.9463 25.9447V38.183L45.3182 39.3504V35.2776C45.3182 32.5837 42.699 30.3922 39.4802 30.3922H35.6282C32.4086 30.3922 29.7902 32.5837 29.7902 35.2776V46.2472L25.103 48.3286L11.9408 51.476C9.6506 52.0234 7.73802 53.2784 6.55668 55.0089C5.37459 56.74 5.05383 58.7557 5.65347 60.6845L7.12567 65.4241C7.32455 66.066 8.10812 66.4507 8.876 66.2843C9.64312 66.1173 10.1037 65.4616 9.90406 64.8191L8.43187 60.0801C7.57802 57.3312 9.46592 54.5659 12.7303 53.7858L24.7643 50.908L33.8091 71.1066C34.4147 72.4591 34.319 76.3179 29.5345 77.7399L20.4404 79.4685C17.271 80.0704 14.1479 78.4807 13.33 75.8481L11.4839 69.9041C11.2843 69.2622 10.5007 68.8769 9.73359 69.0433C8.96572 69.2103 8.50589 69.866 8.70478 70.5085L10.5516 76.4531C11.5893 79.7926 15.1349 81.9991 19.0819 81.9991C21.9822 81.9991 30.1708 80.0822 30.1708 80.0822C32.6629 79.6093 34.7878 78.258 35.9998 76.3761C37.0002 74.8233 37.297 73.0366 36.8678 71.3343L68.3304 64.8892C70.9324 64.3556 73.4027 63.3214 75.4723 61.8981L90.7834 51.3716C95.4512 47.9075 92.7132 43.9812 91.3404 42.8382ZM54.431 22.9205H56.9903C58.9829 22.9205 60.6038 24.2775 60.6038 25.9447V51.3278L51.5456 51.3246C50.7135 51.3184 51.2892 50.8586 51.3348 50.8273L53.9435 49.0593C56.3772 47.4095 57.9668 45.116 58.6673 42.2413C59.1122 40.4177 58.2808 38.5921 56.4991 37.4773C54.8347 36.4363 52.6941 36.2361 50.8174 36.9243V25.9447C50.8174 24.2775 52.4384 22.9205 54.431 22.9205ZM32.6614 35.2776C32.6614 33.9088 33.9922 32.7946 35.6282 32.7946H39.4802C41.1162 32.7946 42.4478 33.9088 42.4478 35.2776V40.6254L32.6606 44.9722V35.2776H32.6614ZM88.9613 49.516L73.6495 60.0426C71.9103 61.2387 69.8348 62.1077 67.6478 62.5557L35.9534 69.0489L27.4298 50.0159L51.767 39.2065C52.7561 38.7667 53.8829 38.8399 54.7794 39.4011C55.6759 39.9622 56.0781 40.8444 55.8545 41.7615C55.29 44.0756 54.0392 45.9031 52.1363 47.1925L49.5276 48.9611C48.4584 49.6855 48.0644 50.8548 48.5235 51.9402C48.9826 53.0251 50.1684 53.727 51.5441 53.727L62.0035 53.7308H62.011C65.7345 53.7308 69.3129 52.7836 72.3589 50.9912L84.0483 44.1132C85.6849 43.1497 87.8884 43.3199 89.2865 44.5173C90.0918 45.2055 91.6679 47.2506 88.9613 49.516V49.516Z" fill="white"/>
<path d="M28.3115 71.8763C28.3115 69.2669 25.7746 67.1436 22.656 67.1436C19.5374 67.1436 17.0005 69.2669 17.0005 71.8763C17.0005 74.4851 19.5374 76.6085 22.656 76.6085C25.7746 76.6085 28.3115 74.4851 28.3115 71.8763V71.8763ZM19.8716 71.8763C19.8716 70.5913 21.1202 69.5459 22.656 69.5459C24.191 69.5459 25.4404 70.5913 25.4404 71.8763C25.4404 73.1607 24.1917 74.2061 22.656 74.2061C21.1202 74.2061 19.8716 73.1607 19.8716 71.8763V71.8763Z" fill="white"/>
<path d="M12.3328 37.7139L33.2007 20.1185L37.8946 22.1499C39.5762 22.8775 41.6226 22.6285 42.9864 21.5299L54.3452 12.3809C54.3452 12.3809 54.0327 17.0799 58.7618 17.0799C61.1963 17.0799 63.1776 15.422 63.1776 13.3844V3.69488C63.1776 3.68362 63.1769 3.67173 63.1769 3.65984C63.1612 1.13174 60.9518 0 58.7618 0H47.2826C44.8474 0 42.8667 1.65788 42.8667 3.69488C42.8667 7.75636 47.8067 7.38975 47.8067 7.38975L39.141 14.3691L34.379 12.3083C32.6571 11.5626 30.5823 11.836 29.2155 12.9871L6.06418 32.5082C4.34899 33.9546 4.35945 36.2988 6.0881 37.7339C6.92102 38.4252 9.76522 39.8623 12.3328 37.7139ZM8.10162 34.2004L31.2529 14.6794C31.552 14.4279 32.032 13.9875 33.0601 14.4423L38.7358 16.8985C39.2823 17.1349 39.9478 17.0542 40.3912 16.697L52.3631 7.05442C52.7848 6.71472 52.9179 6.1942 52.6988 5.74001C52.4797 5.28519 51.9534 4.98802 51.3672 4.98802H47.2826C46.431 4.98802 45.7379 4.40808 45.7379 3.69488C45.7379 2.9823 46.431 2.40236 47.2826 2.40236H58.7618C59.1842 2.40236 60.3058 2.40236 60.3058 3.68737C60.3058 3.698 60.3065 3.70864 60.3065 3.7199V13.3844C60.3065 14.097 59.6134 14.6769 58.7618 14.6769C57.9094 14.6769 57.2163 14.097 57.2163 13.3844V9.55751C57.2163 9.07578 56.8724 8.64036 56.343 8.45205C55.8137 8.26311 55.2006 8.3582 54.7856 8.69228L40.9953 19.7994C40.5183 20.1836 39.802 20.2711 39.2143 20.0165L33.5842 17.5798C33.0272 17.3389 32.3476 17.4284 31.9057 17.8006L10.2953 36.0216C9.35324 36.8099 8.40144 36.2706 8.10984 36.0285C7.50571 35.5261 7.50198 34.7059 8.10162 34.2004V34.2004Z" fill="white"/>
</svg>
