<svg width="90" height="79" viewBox="0 0 90 79" fill="none" xmlns="http://www.w3.org/2000/svg">
<path d="M79.1773 27.5998C81.5773 27.5998 83.5773 25.5998 83.5773 23.1998C83.5773 20.7998 81.5773 18.7998 79.1773 18.7998C76.7773 18.7998 74.7773 20.6998 74.7773 23.1998C74.7773 25.6998 76.7773 27.5998 79.1773 27.5998Z" fill="white"/>
<path d="M10.3775 27.5998C12.7775 27.5998 14.7775 25.5998 14.7775 23.1998C14.7775 20.7998 12.7775 18.7998 10.3775 18.7998C7.97754 18.7998 5.97754 20.6998 5.97754 23.1998C6.07754 25.6998 7.97754 27.5998 10.3775 27.5998Z" fill="white"/>
<path d="M44.0775 31.4002C47.6775 31.4002 50.6775 28.4002 50.6775 24.8002C50.6775 21.2002 47.6775 18.2002 44.0775 18.2002C40.4775 18.2002 37.4775 21.1002 37.4775 24.8002C37.4775 28.5002 40.4775 31.4002 44.0775 31.4002Z" fill="white"/>
<path d="M60.7776 6.4C62.5776 6.4 63.9776 5 63.9776 3.2C63.9776 1.4 62.5776 0 60.7776 0C58.9776 0 57.5776 1.4 57.5776 3.2C57.5776 5 59.0776 6.4 60.7776 6.4Z" fill="white"/>
<path d="M26.9773 6.4C28.7773 6.4 30.1773 5 30.1773 3.2C30.1773 1.4 28.7773 0 26.9773 0C25.1773 0 23.7773 1.4 23.7773 3.2C23.7773 5 25.1773 6.4 26.9773 6.4Z" fill="white"/>
<path d="M54.9775 36.1C54.5775 34.9 53.4775 34.1 52.2775 34H48.8775H39.8775H39.7775H36.1775C34.9775 34.1 33.8775 34.9 33.4775 36.1L28.3775 52.7C27.8775 54.3 28.7775 55.9 30.3775 56.3C30.6775 56.4 30.9775 56.4 31.1775 56.4C32.4775 56.4 33.5775 55.6 33.9775 54.3L36.0775 47.3V75.4C36.0775 77.4 37.6775 79 39.6775 79C41.6775 79 43.2775 77.4 43.2775 75.4V57.8C43.2775 57.2 43.7775 56.7 44.3775 56.7C44.9775 56.7 45.4775 57.2 45.4775 57.8V75.4C45.4775 77.4 47.0775 79 49.0775 79C51.0775 79 52.6775 77.4 52.6775 75.4V47.9L54.7775 54.4C55.1775 55.7 56.2775 56.5 57.5775 56.5C57.8775 56.5 58.1775 56.5 58.3775 56.4C59.9775 55.9 60.8775 54.3 60.3775 52.8L54.9775 36.1ZM50.0775 40.8H46.0775V39.5H50.0775V40.8Z" fill="white"/>
<path d="M89.8777 41.6998L86.3777 30.6998C86.1777 29.8998 85.3777 29.2998 84.5777 29.2998H82.3777H76.3777H76.2777H73.8777C73.0777 29.2998 72.2777 29.8998 72.0777 30.6998L68.7777 41.6998C68.4777 42.6998 69.0777 43.7998 70.0777 44.0998C71.0777 44.3998 72.1777 43.7998 72.4777 42.7998L73.8777 38.1998V56.7998C73.8777 58.0998 74.9777 59.1998 76.2777 59.1998C77.5777 59.1998 78.6777 58.0998 78.6777 56.7998V45.0998C78.6777 44.6998 78.9777 44.3998 79.3777 44.3998C79.7777 44.3998 80.0777 44.6998 80.0777 45.0998V56.6998C80.0777 57.9998 81.1777 59.0998 82.4777 59.0998C83.7777 59.0998 84.8777 57.9998 84.8777 56.6998V38.4998L86.2777 42.7998C86.5777 43.7998 87.6777 44.3998 88.6777 44.0998C89.5777 43.7998 90.1777 42.6998 89.8777 41.6998ZM83.4777 33.7998H80.8777V32.8998H83.4777V33.7998Z" fill="white"/>
<path d="M17.6775 30.6998C17.4775 29.8998 16.6775 29.2998 15.8775 29.2998H13.6775H7.67749H7.57749H5.17749C4.37749 29.2998 3.57749 29.8998 3.37749 30.6998L0.0774923 41.6998C-0.222508 42.6998 0.377492 43.7998 1.37749 44.0998C2.37749 44.3998 3.47749 43.7998 3.77749 42.7998L5.17749 38.1998V56.7998C5.17749 58.0998 6.27749 59.1998 7.57749 59.1998C8.87749 59.1998 9.97749 58.0998 9.97749 56.7998V45.0998C9.97749 44.6998 10.2775 44.3998 10.6775 44.3998C11.0775 44.3998 11.3775 44.6998 11.3775 45.0998V56.6998C11.3775 57.9998 12.4775 59.0998 13.7775 59.0998C15.0775 59.0998 16.1775 57.9998 16.1775 56.6998V38.4998L17.5775 42.7998C17.8775 43.7998 18.9775 44.3998 19.9775 44.0998C20.9775 43.7998 21.5775 42.6998 21.2775 41.6998L17.6775 30.6998ZM14.4775 33.7998H11.8775V32.8998H14.4775V33.7998Z" fill="white"/>
<path d="M31.0776 27.8002V14.4002L32.0776 17.6002C32.2776 18.4002 33.0776 18.8002 33.8776 18.6002C34.6776 18.4002 35.0776 17.6002 34.8776 16.8002L32.2776 8.7002C32.0776 8.1002 31.5776 7.7002 30.9776 7.7002H29.3776H24.9776C24.9776 7.7002 24.9776 7.7002 24.8776 7.7002H23.1776C22.5776 7.7002 22.0776 8.1002 21.8776 8.7002L19.3776 16.8002C19.1776 17.6002 19.5776 18.4002 20.3776 18.6002C21.1776 18.8002 21.9776 18.4002 22.1776 17.6002L23.1776 14.2002V27.8002C23.1776 28.8002 23.9776 29.5002 24.8776 29.5002C25.7776 29.5002 26.5776 28.7002 26.5776 27.8002V19.3002C26.5776 19.0002 26.7776 18.8002 27.0776 18.8002C27.3776 18.8002 27.5776 19.0002 27.5776 19.3002V27.8002C27.5776 28.8002 28.3776 29.5002 29.2776 29.5002C30.2776 29.6002 31.0776 28.8002 31.0776 27.8002ZM28.4776 10.7002H30.2776V11.3002H28.4776V10.7002Z" fill="white"/>
<path d="M66.0774 8.7002C65.8774 8.1002 65.3774 7.7002 64.7774 7.7002H63.1774H58.7774C58.7774 7.7002 58.7774 7.7002 58.6774 7.7002H56.9774C56.3774 7.7002 55.8774 8.1002 55.6774 8.7002L53.1774 16.8002C52.9774 17.6002 53.3774 18.4002 54.1774 18.6002C54.9774 18.8002 55.7774 18.4002 55.9774 17.6002L56.9774 14.2002V27.8002C56.9774 28.8002 57.7774 29.5002 58.6774 29.5002C59.6774 29.5002 60.3774 28.7002 60.3774 27.8002V19.3002C60.3774 19.0002 60.5774 18.8002 60.8774 18.8002C61.1774 18.8002 61.3774 19.0002 61.3774 19.3002V27.8002C61.3774 28.8002 62.1774 29.5002 63.0774 29.5002C63.9774 29.5002 64.7774 28.7002 64.7774 27.8002V14.4002L65.7774 17.6002C65.9774 18.4002 66.7774 18.8002 67.5774 18.6002C68.3774 18.4002 68.7774 17.6002 68.5774 16.8002L66.0774 8.7002ZM63.9774 11.6002H62.1774V11.0002H63.9774V11.6002Z" fill="white"/>
</svg>
